<svg id="Capa_1" enable-background="new 0 0 512 512" height="512" viewBox="0 0 512 512" width="512" xmlns="http://www.w3.org/2000/svg" xmlns:xlink="http://www.w3.org/1999/xlink"><linearGradient id="SVGID_1_" gradientUnits="userSpaceOnUse" x1="0" x2="512" y1="256" y2="256"><stop offset="0" stop-color="#d2deff" stop-opacity="0"/><stop offset="1" stop-color="#b7c5ff"/></linearGradient><g><path d="m418.32 2.5c-55.666-9.521-178.298 12.183-200.004 105.017-14.431 61.722-14.007 112.075-50.427 113.02-21.67.562-32.97-44.31-62.889-48.001-39.047-4.817-66.145 27.695-83.057 57.138-37.205 64.772-25.571 174.918 23.354 228.632 118.488 130.086 259.197-5.951 319.358-112.309 38.585-68.213 125.637-123.352 143.767-200.248 15.178-64.376-18.503-131.003-90.102-143.249z" fill="url(#SVGID_1_)"/><g><g><g fill="#6583fe"><path d="m113.05 456.871c-2.761 0-5-2.238-5-5 0-3.492-2.841-6.333-6.333-6.333-2.761 0-5-2.238-5-5s2.239-5 5-5c3.492 0 6.333-2.841 6.333-6.333 0-2.762 2.239-5 5-5s5 2.238 5 5c0 3.492 2.841 6.333 6.334 6.333 2.761 0 5 2.238 5 5s-2.239 5-5 5c-3.492 0-6.334 2.841-6.334 6.333 0 2.762-2.239 5-5 5z"/><path d="m395.173 55.684c-2.762 0-5-2.238-5-5 0-3.492-2.841-6.333-6.333-6.333-2.762 0-5-2.238-5-5s2.238-5 5-5c3.492 0 6.333-2.841 6.333-6.333 0-2.762 2.238-5 5-5s5 2.238 5 5c0 3.492 2.841 6.333 6.333 6.333 2.762 0 5 2.238 5 5s-2.238 5-5 5c-3.492 0-6.333 2.841-6.333 6.333 0 2.761-2.238 5-5 5z"/><g><g><path d="m442.257 66.269c-2.762 0-5-2.238-5-5v-.149c0-2.762 2.238-5 5-5s5 2.238 5 5v.149c0 2.761-2.238 5-5 5z"/><path d="m442.257 94.053c-2.762 0-5-2.238-5-5v-.15c0-2.762 2.238-5 5-5s5 2.238 5 5v.15c0 2.762-2.238 5-5 5z"/></g><g><path d="m430.286 73.179c-.845 0-1.701-.215-2.486-.666l-.131-.075c-2.395-1.376-3.22-4.432-1.844-6.826 1.377-2.395 4.432-3.221 6.826-1.844l.131.075c2.395 1.376 3.22 4.432 1.844 6.826-.925 1.609-2.608 2.51-4.34 2.51z"/><path d="m454.348 87.07c-.851 0-1.712-.217-2.5-.674l-.13-.075c-2.39-1.384-3.206-4.442-1.822-6.832 1.384-2.391 4.445-3.207 6.832-1.822l.13.075c2.39 1.384 3.206 4.442 1.822 6.832-.927 1.602-2.607 2.496-4.332 2.496z"/></g><g><path d="m430.165 87.07c-1.732 0-3.415-.9-4.34-2.51-1.376-2.395-.551-5.45 1.844-6.826l.131-.075c2.395-1.377 5.451-.55 6.826 1.844 1.376 2.395.551 5.45-1.844 6.826l-.131.075c-.785.452-1.641.666-2.486.666z"/><path d="m454.228 73.179c-1.727 0-3.405-.895-4.332-2.496-1.384-2.39-.567-5.448 1.822-6.832l.13-.075c2.39-1.387 5.449-.567 6.832 1.822 1.384 2.39.567 5.448-1.822 6.832l-.13.075c-.788.457-1.651.674-2.5.674z"/></g></g><g><g><path d="m383.84 420.388c-2.762 0-5-2.238-5-5v-.15c0-2.762 2.238-5 5-5s5 2.238 5 5v.15c0 2.761-2.238 5-5 5z"/><path d="m383.84 448.172c-2.762 0-5-2.238-5-5v-.15c0-2.762 2.238-5 5-5s5 2.238 5 5v.15c0 2.762-2.238 5-5 5z"/></g><g><path d="m371.869 427.297c-.836 0-1.683-.21-2.462-.651l-.131-.074c-2.402-1.362-3.245-4.414-1.883-6.816 1.363-2.401 4.415-3.242 6.816-1.883l.131.074c2.402 1.362 3.245 4.414 1.883 6.816-.92 1.623-2.613 2.534-4.354 2.534z"/><path d="m395.931 441.19c-.851 0-1.712-.217-2.5-.674l-.13-.075c-2.39-1.384-3.206-4.442-1.822-6.832 1.384-2.391 4.445-3.206 6.832-1.822l.13.075c2.39 1.384 3.206 4.442 1.822 6.832-.927 1.601-2.607 2.496-4.332 2.496z"/></g><g><path d="m371.748 441.19c-1.732 0-3.415-.9-4.34-2.51-1.376-2.395-.551-5.45 1.844-6.826l.131-.075c2.395-1.377 5.45-.551 6.826 1.844s.551 5.45-1.844 6.826l-.131.075c-.785.451-1.641.666-2.486.666z"/><path d="m395.811 427.297c-1.736 0-3.423-.905-4.346-2.52-1.37-2.398-.537-5.451 1.86-6.821l.13-.074c2.398-1.37 5.452-.537 6.821 1.86 1.37 2.397.537 5.451-1.86 6.821l-.13.074c-.782.447-1.635.66-2.475.66z"/></g></g><path d="m72.909 434.205c-2.761 0-5-2.238-5-5 0-3.492-2.841-6.334-6.333-6.334-2.761 0-5-2.238-5-5s2.239-5 5-5c3.492 0 6.333-2.841 6.333-6.333 0-2.762 2.239-5 5-5s5 2.238 5 5c0 3.492 2.841 6.333 6.333 6.333 2.761 0 5 2.238 5 5s-2.239 5-5 5c-3.492 0-6.333 2.842-6.333 6.334 0 2.762-2.239 5-5 5z"/></g><g><path d="m458.796 146.444h-82.916v-51.545c0-4.849-3.931-8.78-8.78-8.78h-222.199c-4.849 0-8.78 3.931-8.78 8.78v52.454h-58.212c-8.284 0-15 6.716-15 15v204.891 27.872c0 8.284 6.716 15 15 15h127.331v56.764h-22.964c-5.523 0-10 4.477-10 10v8.119c0 2.762 2.239 5 5 5h157.448c2.761 0 5-2.238 5-5v-8.119c0-5.523-4.477-10-10-10h-22.964v-56.764h127.332c8.284 0 15-6.716 15-15v-27.872-136.97h9.704c5.523 0 10-4.477 10-10v-63.83c0-5.523-4.477-10-10-10z" fill="#2626bc" opacity=".1"/><g><path d="m205.24 378.263h101.52v63.617h-101.52z" fill="#fff"/><path d="m449.09 137.35v204.89h-386.18v-204.89c0-8.28 6.71-15 15-15h356.18c8.29 0 15 6.72 15 15z" fill="#6583fe"/><g><g><g><path d="m375.88 69.9v272.34h-239.76v-272.34c0-4.85 3.93-8.78 8.78-8.78h222.2c4.85 0 8.78 3.93 8.78 8.78z" fill="#fff"/></g><g><circle cx="199.262" cy="129.244" fill="#6583fe" r="30.718"/><path d="m213.556 122.772h-7.822v-7.822c0-2.441-1.979-4.42-4.42-4.42h-4.103c-2.441 0-4.42 1.979-4.42 4.42v7.822h-7.822c-2.441 0-4.42 1.979-4.42 4.42v4.103c0 2.441 1.979 4.42 4.42 4.42h7.822v7.822c0 2.441 1.979 4.42 4.42 4.42h4.103c2.441 0 4.42-1.979 4.42-4.42v-7.822h7.822c2.441 0 4.42-1.979 4.42-4.42v-4.103c0-2.441-1.979-4.42-4.42-4.42z" fill="#fff"/></g><g><path d="m344.311 137.156h-91.52c-2.762 0-5-2.239-5-5s2.238-5 5-5h91.52c2.762 0 5 2.239 5 5 0 2.762-2.238 5-5 5z" fill="#00c"/></g><g><path d="m344.311 155.327h-91.52c-2.762 0-5-2.239-5-5s2.238-5 5-5h91.52c2.762 0 5 2.239 5 5s-2.238 5-5 5z" fill="#00c"/></g><g><path d="m279.311 111.665h-26.52c-2.762 0-5-2.239-5-5s2.238-5 5-5h26.52c2.762 0 5 2.239 5 5s-2.238 5-5 5z" fill="#00c"/></g><path d="m346.38 192.2v35.1c0 2.76-2.24 5-5 5h-170.76c-2.76 0-5-2.24-5-5v-35.1c0-2.76 2.24-5 5-5h170.76c2.76 0 5 2.24 5 5z" fill="#fff"/><path d="m211.998 187.202h-41.381c-2.761 0-5 2.239-5 5v35.096c0 2.761 2.239 5 5 5h41.381z" fill="#6583fe"/><g><path d="m341.38 237.3h-170.76c-5.514 0-10-4.486-10-10v-35.1c0-5.514 4.486-10 10-10h170.76c5.514 0 10 4.486 10 10v35.1c0 5.514-4.486 10-10 10zm0-45.106-170.76.006v35.1h170.76z" fill="#00c"/></g><g><path d="m319.311 214.75h-86.52c-2.762 0-5-2.239-5-5s2.238-5 5-5h86.52c2.762 0 5 2.239 5 5s-2.238 5-5 5z" fill="#00c"/></g><g><g><path d="m301.76 282.344h-95.18v10h95.18c2.762 0 5-2.239 5-5s-2.238-5-5-5z" fill="#00c"/></g><g><path d="m246.76 262.394h-40.18v10h40.18c2.762 0 5-2.239 5-5s-2.238-5-5-5z" fill="#00c"/></g><path d="m210.876 267.394c0-9.161-7.453-16.613-16.613-16.613-9.161 0-16.613 7.453-16.613 16.613 0 4.518 1.818 8.615 4.754 11.613-2.936 2.998-4.754 7.095-4.754 11.613 0 2.761 2.239 5 5 5s5-2.239 5-5c0-3.646 2.967-6.613 6.613-6.613 3.647 0 6.613 2.967 6.613 6.613 0 2.761 2.239 5 5 5s5-2.239 5-5c0-4.518-1.818-8.615-4.755-11.613 2.937-2.998 4.755-7.095 4.755-11.613zm-16.614-6.614c3.647 0 6.613 2.967 6.613 6.613 0 3.647-2.967 6.613-6.613 6.613s-6.613-2.967-6.613-6.613 2.967-6.613 6.613-6.613z" fill="#00c"/><g><g><g><path d="m330.336 326.131h-129.77c-2.762 0-5-2.239-5-5s2.238-5 5-5h129.77c2.762 0 5 2.239 5 5s-2.238 5-5 5z" fill="#00c"/></g><g><path d="m181.664 326.189c2.761 0 5-2.239 5-5v-.115c0-2.761-2.239-5-5-5s-5 2.239-5 5v.115c0 2.761 2.238 5 5 5z" fill="#00c"/></g><g><path d="m342.434 272.451c2.761 0 5-2.239 5-5v-.115c0-2.761-2.239-5-5-5s-5 2.239-5 5v.115c0 2.761 2.239 5 5 5z" fill="#00c"/></g><g><path d="m326.667 272.451c2.761 0 5-2.239 5-5v-.115c0-2.761-2.239-5-5-5s-5 2.239-5 5v.115c0 2.761 2.239 5 5 5z" fill="#00c"/></g></g></g></g></g></g><g fill="#fff"><path d="m434.091 385.116h-356.182c-8.284 0-15-6.716-15-15v-27.872h386.183v27.872c-.001 8.284-6.716 15-15.001 15z"/><path d="m334.724 464.999h-157.448c-2.761 0-5-2.239-5-5v-8.119c0-5.523 4.477-10 10-10h147.448c5.523 0 10 4.477 10 10v8.119c0 2.761-2.239 5-5 5z"/></g></g></g></g><g><g><path d="m458.796 205.273h-113.46c-5.523 0-10-4.477-10-10v-63.83c0-5.523 4.477-10 10-10h113.459c5.523 0 10 4.477 10 10v63.83c.001 5.523-4.476 10-9.999 10z" fill="#fff"/><path d="m458.796 116.443h-77.916v-46.545c0-7.598-6.182-13.779-13.78-13.779h-222.2c-7.599 0-13.78 6.182-13.78 13.779v47.454h-53.211c-11.028 0-20 8.972-20 20v232.763c0 11.028 8.972 20 20 20h52.644c2.761 0 5-2.238 5-5s-2.239-5-5-5h-52.644c-5.514 0-10-4.486-10-10v-22.872h376.183v22.872c0 5.514-4.486 10-10 10h-274.439c-2.761 0-5 2.238-5 5s2.239 5 5 5h40.587v46.765h-17.964c-8.271 0-15 6.729-15 15v8.119c0 5.514 4.486 10 10 10h157.447c5.514 0 10-4.486 10-10v-8.119c0-8.271-6.728-15-15-15h-17.963v-46.765h122.332c11.028 0 20-8.972 20-20v-159.842h4.704c8.272 0 15-6.729 15-15v-63.83c0-8.271-6.729-15-15-15zm-124.072 335.437.006 8.119h-157.454v-8.119c0-2.757 2.243-5 5-5h147.447c2.758 0 5.001 2.243 5.001 5zm-32.964-15h-91.52v-46.765h91.52zm-233.851-299.527c0-5.514 4.486-10 10-10h53.211v209.891h-63.211zm376.183 199.89h-63.212v-103.392c0-2.762-2.238-5-5-5s-5 2.238-5 5v103.393h-229.76v-267.346c0-2.084 1.696-3.779 3.78-3.779h222.2c2.084 0 3.78 1.695 3.78 3.779v46.545h-25.544c-8.271 0-15 6.728-15 15v63.83c0 8.271 6.729 15 15 15h98.756zm19.704-141.97c0 2.757-2.243 5-5 5h-113.46c-2.757 0-5-2.243-5-5v-63.83c0-2.757 2.243-5 5-5h113.46c2.757 0 5 2.243 5 5z" fill="#00c"/><g><g><path d="m439.619 148.414h-18.583c-2.762 0-5-2.239-5-5s2.238-5 5-5h18.583c2.762 0 5 2.239 5 5s-2.239 5-5 5z" fill="#00c"/></g><g><path d="m439.619 166.796h-58.583c-2.762 0-5-2.239-5-5s2.238-5 5-5h58.583c2.762 0 5 2.239 5 5s-2.239 5-5 5z" fill="#00c"/></g><g><path d="m439.619 185.177h-58.583c-2.762 0-5-2.239-5-5s2.238-5 5-5h58.583c2.762 0 5 2.239 5 5s-2.239 5-5 5z" fill="#00c"/></g></g></g></g></g></g></svg>